#N canvas -1722 28 1920 997 16;
#X obj 491 226 metro;
#X obj 394 255 bng 15 250 50 0 empty empty empty 17 7 0 10 #fcfcfc #000000 #000000;
#X obj 485 164 tgl 15 0 empty empty empty 17 7 0 10 #fcfcfc #000000 #000000 0 1;
#X obj 540 11 loadbang;
#X obj 271 232 loadbang;
#X obj 492 268 bng 15 250 50 0 empty empty empty 17 7 0 10 #fcfcfc #000000 #000000;
#X obj 521 368 + 1;
#X floatatom 444 378 5 0 0 0 - - - 0;
#X obj 444 327 int 1;
#X floatatom 600 219 5 0 0 0 - - - 0;
#X obj 394 214 sel 0;
#X msg 394 284 -1;
#X obj 1164 717 spigot;
#X obj 1219 683 tgl 15 0 empty empty empty 17 7 0 10 #fcfcfc #000000 #000000 0 1;
#X obj 538 50 vsl 15 128 0 127 0 0 empty empty empty 0 -9 0 10 #fcfcfc #000000 #000000 0 1;
#X floatatom 1098 747 5 0 0 0 - - - 0;
#X floatatom 446 471 5 0 0 0 - - - 0;
#X obj 1266 625 key;
#X obj 1261 658 sel 113;
#X obj 1269 211 netreceive -u -b;
#X msg 1273 165 listen 12001;
#X obj 1290 277 oscparse;
#X obj 1216 297 bng 24 250 50 0 empty empty empty 0 -12 0 16 #fcfcfc #000000 #000000;
#X obj 1286 318 list trim;
#X symbolatom 1243 408 10 0 0 0 - - - 0;
#X floatatom 1396 426 5 0 0 0 - - - 0;
#X obj 1283 357 unpack s f;
#X obj 1381 502 sel 10 20 30 40;
#X obj 1229 499 sel 0;
#X obj 1231 537 bng 15 250 50 0 empty empty empty 17 7 0 10 #fcfcfc #000000 #000000;
#X msg 1239 690 1;
#X floatatom 1239 722 5 0 0 0 - - - 0;
#X obj 260 690 s c1;
#X obj 1168 595 receive c1;
#N canvas 390 736 1070 923 melody 1;
#X floatatom 149 95 5 0 0 0 - - - 0;
#X obj 149 41 inlet;
#X msg 343 670 disconnect;
#X obj 180 758 netsend -u -b;
#X floatatom 161 840 5 0 0 0 - - - 0;
#X msg 155 604 connect localhost 11111;
#X obj -28 584 pack f;
#X obj -30 655 oscformat /B1;
#X obj 148 146 sel 0 1 2 3 4 5 6 7 8 9 10 11 12 13 14 15 16 17 18 19 20 21 22 23 24 25 26 27 28 29 30 31 32 33 34 35 36 37 38 39 40 41 42 43 44 45 46 47 48, f 160;
#X msg 341 303 64;
#X msg 150 307 63;
#X text 180 272 re#;
#X text 347 267 mi;
#X msg 542 301 68;
#X text 569 258 sol#;
#X msg 733 302 69;
#X text 731 256 la;
#X text 939 255 sib;
#X msg 915 304 70;
#X text 1152 270 si;
#X msg 1123 307 71;
#X msg 1302 310 72;
#X text 1330 263 do;
#X text 1730 268 re;
#X msg 1702 315 74;
#X text 1898 265 re#;
#X msg 1870 312 75;
#X text 2079 269 mi;
#X msg 2051 316 76;
#X text 1535 267 do#;
#X msg 1507 314 73;
#X obj 2567 354 makenote 60 500;
#X text 2255 272 fa;
#X text 2424 273 fa#;
#X text 2598 270 sol;
#X msg 2227 319 77;
#X msg 2396 320 78;
#X msg 2570 317 79;
#X obj 148 389 noteout 1;
#X obj 337 385 noteout 1;
#X obj 539 383 noteout 1;
#X obj 730 384 noteout 1;
#X obj 912 386 noteout 1;
#X obj 1119 389 noteout 1;
#X obj 1299 392 noteout 1;
#X obj 1504 396 noteout 1;
#X obj 1699 397 noteout 1;
#X obj 1867 394 noteout 1;
#X obj 2048 398 noteout 1;
#X obj 2224 401 noteout 1;
#X obj 2393 402 noteout 1;
#X obj 2567 399 noteout 1;
#X obj 146 344 makenote 100 500;
#X obj 339 340 makenote 100 500;
#X obj 539 338 makenote 100 500;
#X obj 730 339 makenote 100 500;
#X obj 912 341 makenote 100 500;
#X obj 1120 344 makenote 100 500;
#X obj 1299 347 makenote 100 500;
#X obj 1504 351 makenote 100 500;
#X obj 1699 352 makenote 100 500;
#X obj 1867 348 makenote 100 500;
#X obj 2048 353 makenote 100 500;
#X obj 2224 356 makenote 100 500;
#X obj 2393 357 makenote 100 500;
#X connect 0 0 8 0;
#X connect 1 0 0 0;
#X connect 2 0 3 0;
#X connect 3 0 4 0;
#X connect 5 0 3 0;
#X connect 6 0 7 0;
#X connect 7 0 3 0;
#X connect 8 4 9 0;
#X connect 8 6 15 0;
#X connect 8 9 21 0;
#X connect 8 10 20 0;
#X connect 8 12 15 0;
#X connect 8 16 28 0;
#X connect 8 18 24 0;
#X connect 8 24 20 0;
#X connect 8 30 15 0;
#X connect 8 33 21 0;
#X connect 8 34 20 0;
#X connect 8 36 13 0;
#X connect 8 40 18 0;
#X connect 8 42 9 0;
#X connect 9 0 53 0;
#X connect 10 0 6 0;
#X connect 10 0 52 0;
#X connect 13 0 54 0;
#X connect 15 0 55 0;
#X connect 18 0 56 0;
#X connect 20 0 57 0;
#X connect 21 0 58 0;
#X connect 24 0 60 0;
#X connect 26 0 61 0;
#X connect 28 0 62 0;
#X connect 30 0 59 0;
#X connect 31 0 51 0;
#X connect 31 1 51 1;
#X connect 35 0 63 0;
#X connect 36 0 64 0;
#X connect 37 0 31 0;
#X connect 52 0 38 0;
#X connect 52 1 38 1;
#X connect 53 0 39 0;
#X connect 53 1 39 1;
#X connect 54 0 40 0;
#X connect 54 1 40 1;
#X connect 55 0 41 0;
#X connect 55 1 41 1;
#X connect 56 0 42 0;
#X connect 56 1 42 1;
#X connect 57 0 43 0;
#X connect 57 1 43 1;
#X connect 58 0 44 0;
#X connect 58 1 44 1;
#X connect 59 0 45 0;
#X connect 59 1 45 1;
#X connect 60 0 46 0;
#X connect 60 1 46 1;
#X connect 61 0 47 0;
#X connect 61 1 47 1;
#X connect 62 0 48 0;
#X connect 62 1 48 1;
#X connect 63 0 49 0;
#X connect 63 1 49 1;
#X connect 64 0 50 0;
#X connect 64 1 50 1;
#X restore 1148 780 pd melody;
#X obj 444 421 % 96;
#X obj 445 559 moses 48;
#X obj 581 688 s c2;
#X obj 537 622 % 48;
#X obj 1415 720 spigot;
#X obj 1470 686 tgl 15 0 empty empty empty 17 7 0 10 #fcfcfc #000000 #000000 0 1;
#X floatatom 1349 750 5 0 0 0 - - - 0;
#X obj 1517 628 key;
#X obj 1512 661 sel 113;
#X msg 1490 693 1;
#X floatatom 1490 725 5 0 0 0 - - - 0;
#X obj 1419 598 receive c2;
#N canvas -9 0 1920 944 melody2 0;
#X floatatom 149 95 5 0 0 0 - - - 0;
#X obj 149 41 inlet;
#X msg 343 670 disconnect;
#X obj 180 758 netsend -u -b;
#X floatatom 161 840 5 0 0 0 - - - 0;
#X msg 155 604 connect localhost 11111;
#X obj -28 584 pack f;
#X obj -30 655 oscformat /B1;
#X obj 148 146 sel 0 1 2 3 4 5 6 7 8 9 10 11 12 13 14 15 16 17 18 19 20 21 22 23 24 25 26 27 28 29 30 31 32 33 34 35 36 37 38 39 40 41 42 43 44 45 46 47 48, f 224;
#X msg 341 303 64;
#X msg 150 307 63;
#X text 180 272 re#;
#X text 347 267 mi;
#X msg 542 301 68;
#X text 569 258 sol#;
#X msg 733 302 69;
#X text 731 256 la;
#X text 939 255 sib;
#X msg 915 304 70;
#X text 1152 270 si;
#X msg 1123 307 71;
#X msg 1302 310 72;
#X text 1330 263 do;
#X text 1730 268 re;
#X msg 1702 315 74;
#X text 1898 265 re#;
#X msg 1870 312 75;
#X text 2079 269 mi;
#X msg 2051 316 76;
#X text 1535 267 do#;
#X msg 1507 314 73;
#X obj 2567 354 makenote 60 500;
#X text 2255 272 fa;
#X text 2424 273 fa#;
#X text 2598 270 sol;
#X msg 2227 319 77;
#X msg 2396 320 78;
#X msg 2570 317 79;
#X obj 148 389 noteout 1;
#X obj 337 385 noteout 1;
#X obj 539 383 noteout 1;
#X obj 730 384 noteout 1;
#X obj 912 386 noteout 1;
#X obj 1119 389 noteout 1;
#X obj 1299 392 noteout 1;
#X obj 1504 396 noteout 1;
#X obj 1699 397 noteout 1;
#X obj 1867 394 noteout 1;
#X obj 2048 398 noteout 1;
#X obj 2224 401 noteout 1;
#X obj 2393 402 noteout 1;
#X obj 2567 399 noteout 1;
#X obj 146 344 makenote 100 500;
#X obj 339 340 makenote 100 500;
#X obj 539 338 makenote 100 500;
#X obj 730 339 makenote 100 500;
#X obj 912 341 makenote 100 500;
#X obj 1120 344 makenote 100 500;
#X obj 1299 347 makenote 100 500;
#X obj 1504 351 makenote 100 500;
#X obj 1699 352 makenote 100 500;
#X obj 1867 348 makenote 100 500;
#X obj 2048 353 makenote 100 500;
#X obj 2224 356 makenote 100 500;
#X obj 2393 357 makenote 100 500;
#X connect 0 0 8 0;
#X connect 1 0 0 0;
#X connect 2 0 3 0;
#X connect 3 0 4 0;
#X connect 5 0 3 0;
#X connect 6 0 7 0;
#X connect 7 0 3 0;
#X connect 8 4 9 0;
#X connect 8 6 15 0;
#X connect 8 9 21 0;
#X connect 8 10 20 0;
#X connect 8 12 15 0;
#X connect 8 16 28 0;
#X connect 8 18 37 0;
#X connect 8 22 36 0;
#X connect 8 24 35 0;
#X connect 8 28 30 0;
#X connect 8 30 35 0;
#X connect 8 33 28 0;
#X connect 8 34 26 0;
#X connect 8 36 10 0;
#X connect 8 40 21 0;
#X connect 8 42 15 0;
#X connect 9 0 53 0;
#X connect 10 0 6 0;
#X connect 10 0 52 0;
#X connect 13 0 54 0;
#X connect 15 0 55 0;
#X connect 18 0 56 0;
#X connect 20 0 57 0;
#X connect 21 0 58 0;
#X connect 24 0 60 0;
#X connect 26 0 61 0;
#X connect 28 0 62 0;
#X connect 30 0 59 0;
#X connect 31 0 51 0;
#X connect 31 1 51 1;
#X connect 35 0 63 0;
#X connect 36 0 64 0;
#X connect 37 0 31 0;
#X connect 52 0 38 0;
#X connect 52 1 38 1;
#X connect 53 0 39 0;
#X connect 53 1 39 1;
#X connect 54 0 40 0;
#X connect 54 1 40 1;
#X connect 55 0 41 0;
#X connect 55 1 41 1;
#X connect 56 0 42 0;
#X connect 56 1 42 1;
#X connect 57 0 43 0;
#X connect 57 1 43 1;
#X connect 58 0 44 0;
#X connect 58 1 44 1;
#X connect 59 0 45 0;
#X connect 59 1 45 1;
#X connect 60 0 46 0;
#X connect 60 1 46 1;
#X connect 61 0 47 0;
#X connect 61 1 47 1;
#X connect 62 0 48 0;
#X connect 62 1 48 1;
#X connect 63 0 49 0;
#X connect 63 1 49 1;
#X connect 64 0 50 0;
#X connect 64 1 50 1;
#X restore 1399 783 pd melody2;
#X msg 42 76 listen 11112;
#X msg 75 108 listen 0;
#X obj 56 141 netreceive -u -b;
#X obj 85 217 oscparse;
#X obj 103 281 list trim;
#X obj 115 324 route start;
#X msg 777 65 listen 0;
#X obj 758 98 netreceive -u -b;
#X obj 787 148 oscparse;
#X obj 805 238 list trim;
#X msg 744 33 listen 11115;
#X obj 817 281 unpack s f;
#X symbolatom 801 330 10 0 0 0 - - - 0;
#X obj 707 269 + 180;
#X connect 0 0 5 0;
#X connect 1 0 11 0;
#X connect 2 0 0 0;
#X connect 2 0 10 0;
#X connect 3 0 14 0;
#X connect 4 0 1 0;
#X connect 5 0 8 0;
#X connect 6 0 8 1;
#X connect 7 0 35 0;
#X connect 8 0 6 0;
#X connect 8 0 7 0;
#X connect 9 0 0 1;
#X connect 10 0 1 0;
#X connect 11 0 8 0;
#X connect 12 0 15 0;
#X connect 12 0 34 0;
#X connect 13 0 12 1;
#X connect 16 0 36 0;
#X connect 17 0 18 0;
#X connect 18 0 13 0;
#X connect 19 0 21 0;
#X connect 19 0 22 0;
#X connect 20 0 19 0;
#X connect 21 0 23 0;
#X connect 23 0 26 0;
#X connect 25 0 27 0;
#X connect 25 0 28 0;
#X connect 26 0 24 0;
#X connect 26 1 25 0;
#X connect 28 0 29 0;
#X connect 29 0 30 0;
#X connect 30 0 31 0;
#X connect 31 0 12 1;
#X connect 33 0 12 0;
#X connect 35 0 16 0;
#X connect 36 0 32 0;
#X connect 36 1 38 0;
#X connect 38 0 37 0;
#X connect 39 0 41 0;
#X connect 39 0 47 0;
#X connect 40 0 39 1;
#X connect 42 0 43 0;
#X connect 43 0 40 0;
#X connect 44 0 45 0;
#X connect 45 0 39 1;
#X connect 46 0 39 0;
#X connect 48 0 50 0;
#X connect 49 0 50 0;
#X connect 50 0 51 0;
#X connect 51 0 52 0;
#X connect 52 0 53 0;
#X connect 53 0 2 0;
#X connect 54 0 55 0;
#X connect 55 0 56 0;
#X connect 56 0 57 0;
#X connect 57 0 59 0;
#X connect 58 0 55 0;
#X connect 59 0 60 0;
#X connect 59 1 61 0;
#X connect 61 0 9 0;
